<svg width="400" height="400" viewBox="0 0 400 400" fill="none" xmlns="http://www.w3.org/2000/svg">
<path d="M374.457 22.5715L101.829 249.772M166.057 314.286L228.286 376.229C232.107 380.146 236.885 382.997 242.147 384.5C247.409 386.003 252.972 386.107 258.286 384.8C263.629 383.555 268.562 380.956 272.61 377.254C276.658 373.551 279.685 368.868 281.4 363.657L383.571 57.3715C385.709 51.635 386.153 45.405 384.851 39.4233C383.548 33.4416 380.555 27.96 376.226 23.6312C371.897 19.3024 366.416 16.3087 360.434 15.0065C354.452 13.7042 348.222 14.1483 342.486 16.2858L36.2 118.486C30.8093 120.323 26.0071 123.566 22.2901 127.881C18.573 132.196 16.0759 137.425 15.0571 143.029C14.0048 148.128 14.2372 153.41 15.7334 158.397C17.2297 163.385 19.9428 167.922 23.6285 171.6L101.829 249.8L99.2571 348.829L166.057 314.286Z" stroke="#F81894" stroke-width="5" stroke-linecap="round" stroke-linejoin="round"/>
</svg>
