<svg width="24" height="24" viewBox="0 0 24 24" fill="none" xmlns="http://www.w3.org/2000/svg">
<g clip-path="url(#clip0_175_121)">
<path d="M12 2.32275C6.47581 2.32275 2 6.79856 2 12.3228C2 17.8469 6.47581 22.3228 12 22.3228C17.5242 22.3228 22 17.8469 22 12.3228C22 6.79856 17.5242 2.32275 12 2.32275ZM12 20.3873C7.55242 20.3873 3.93548 16.7703 3.93548 12.3228C3.93548 7.87517 7.55242 4.25824 12 4.25824C16.4476 4.25824 20.0645 7.87517 20.0645 12.3228C20.0645 16.7703 16.4476 20.3873 12 20.3873ZM8.77419 11.6776C9.4879 11.6776 10.0645 11.101 10.0645 10.3873C10.0645 9.67356 9.4879 9.09695 8.77419 9.09695C8.06048 9.09695 7.48387 9.67356 7.48387 10.3873C7.48387 11.101 8.06048 11.6776 8.77419 11.6776ZM15.2258 11.6776C15.9395 11.6776 16.5161 11.101 16.5161 10.3873C16.5161 9.67356 15.9395 9.09695 15.2258 9.09695C14.5121 9.09695 13.9355 9.67356 13.9355 10.3873C13.9355 11.101 14.5121 11.6776 15.2258 11.6776ZM15.3871 14.605C14.5484 15.6131 13.3105 16.1937 12 16.1937C10.6895 16.1937 9.45161 15.6171 8.6129 14.605C8.27016 14.1937 7.65726 14.1413 7.25 14.48C6.83871 14.8228 6.78629 15.4316 7.125 15.8429C8.33468 17.2945 10.1129 18.1252 12 18.1252C13.8871 18.1252 15.6653 17.2945 16.875 15.8429C17.2177 15.4316 17.1613 14.8228 16.75 14.48C16.3427 14.1413 15.7298 14.1937 15.3871 14.605Z" fill="#F81894"/>
</g>
<defs>
<clipPath id="clip0_175_121">
<rect width="20" height="20.6452" fill="white" transform="translate(2 2)"/>
</clipPath>
</defs>
</svg>
