<svg width="125" height="125" viewBox="0 0 125 125" fill="none" xmlns="http://www.w3.org/2000/svg">
<rect x="1" y="1" width="123" height="123" rx="61.5" stroke="#F81894" stroke-width="2"/>
<path d="M42.25 50.625L62.5 30.375L82.75 50.625" stroke="#F81894" stroke-width="3" stroke-linecap="round" stroke-linejoin="round"/>
<path d="M50.9297 73.6533C50.9297 74.1025 50.4561 74.3271 49.5088 74.3271H46.1104V94H38.6104V74.3271H36.4131C35.6611 74.3271 35.1436 74.3613 34.8604 74.4297C34.4893 74.5078 34.2207 74.5469 34.0547 74.5469C33.5566 74.5469 33.3076 74.3516 33.3076 73.9609C33.3076 73.502 33.791 73.2725 34.7578 73.2725H47.8242C48.498 73.2725 48.9961 73.2432 49.3184 73.1846C49.709 73.1162 50.002 73.082 50.1973 73.082C50.6855 73.082 50.9297 73.2725 50.9297 73.6533ZM52.6436 86.0898C52.6436 84.918 52.8535 83.8535 53.2734 82.8965C53.7031 81.9297 54.2891 81.0898 55.0312 80.377C56.6328 78.8535 58.6445 78.0918 61.0664 78.0918C63.5371 78.0918 65.5488 78.8828 67.1016 80.4648C68.5859 81.959 69.3281 83.8486 69.3281 86.1338C69.3281 88.4287 68.5664 90.3477 67.043 91.8906C65.4707 93.4824 63.459 94.2783 61.0078 94.2783C58.6152 94.2783 56.6328 93.5215 55.0605 92.0078C53.4492 90.4453 52.6436 88.4727 52.6436 86.0898ZM60.5977 93.1797C60.6758 93.1895 60.7539 93.1943 60.832 93.1943H61.0371C63.0098 93.1943 64.665 92.584 66.0029 91.3633C67.4287 90.0449 68.1416 88.3164 68.1416 86.1777C68.1416 84.0879 67.4727 82.3936 66.1348 81.0947C64.8164 79.8057 63.1123 79.1611 61.0225 79.1611H60.8027C60.7344 79.1611 60.666 79.166 60.5977 79.1758V93.1797ZM83.0537 94.2783C81.6963 94.2783 80.3828 93.9707 79.1133 93.3555V98.6875H73.0928V78.3555H79.1133V79.1611C80.3926 78.4482 81.7012 78.0918 83.0391 78.0918C84.377 78.0918 85.5586 78.292 86.584 78.6924C87.6094 79.0928 88.4883 79.6445 89.2207 80.3477C90.7344 81.832 91.4912 83.7314 91.4912 86.0459C91.4912 88.3799 90.7441 90.3184 89.25 91.8613C87.707 93.4727 85.6416 94.2783 83.0537 94.2783ZM83.0098 79.1611C81.5645 79.1611 80.2656 79.5615 79.1133 80.3623V92.0518C80.4316 92.8135 81.8672 93.1943 83.4199 93.1943H83.8008C83.918 93.1943 84.0303 93.1846 84.1377 93.165V79.249C83.7666 79.1904 83.3906 79.1611 83.0098 79.1611Z" fill="#F81894"/>
</svg>
